<svg xmlns="http://www.w3.org/2000/svg" xmlns:v="https://svgstorm.com"
viewBox = "0 0 231 231"
width="231"
height="231">
<g fill="#000002" fill-opacity="0.00" stroke="None"><path d="
M 0.00 231.00 
L 35.00 231.00
C 35.00 223.33 35.00 215.67 35.00 208.00
C 36.38 194.34 38.18 180.70 42.93 167.93 C 44.73 155.37 55.68 145.80 56.00 133.00
C 53.91 126.70 52.80 118.14 55.00 112.00
C 58.70 76.94 65.83 40.74 91.25 14.25 C 101.25 -3.13 128.84 -0.64 127.00 22.00
C 127.27 29.16 126.90 36.12 126.00 43.00
C 126.21 46.46 124.30 49.40 125.00 53.00
C 137.38 45.40 149.89 38.14 163.08 32.08 C 175.26 23.26 198.99 24.37 198.00 44.00 C 197.53 59.37 189.14 72.98 179.75 84.75 C 172.45 97.32 156.87 103.12 149.00 113.00
C 147.95 118.72 146.53 124.39 145.00 130.00
C 154.32 137.00 145.29 150.50 137.00 154.00
C 131.77 158.65 124.86 162.15 118.00 164.00
C 118.75 169.41 121.57 174.13 124.00 179.00
C 128.04 184.61 132.57 191.35 138.00 195.00
C 142.35 188.87 148.00 181.92 154.00 178.00
C 153.71 170.51 155.37 162.32 162.00 158.00
C 167.79 154.10 176.68 156.06 181.30 151.30 C 181.37 142.24 195.07 143.96 193.00 153.00
C 194.75 156.08 194.46 161.58 193.00 165.00
C 191.38 174.61 197.19 185.63 192.00 194.00
C 187.28 201.80 176.52 193.49 179.00 186.00
C 175.25 189.01 169.48 190.17 165.00 188.00
C 160.17 196.82 148.68 204.94 149.00 215.00
C 150.97 220.16 149.71 226.01 148.00 231.00
L 231.00 231.00
L 231.00 0.00
L 0.00 0.00
L 0.00 231.00 Z"/>
</g>
<g fill="#F7F9FD" fill-opacity="0.80" stroke="None"><path d="
M 55.00 112.00 
C 55.67 117.85 57.98 129.27 56.00 133.00
C 55.68 145.80 44.73 155.37 42.93 167.93 C 38.18 180.70 36.38 194.34 35.00 208.00
C 39.53 212.76 35.77 223.82 37.00 231.00
L 39.00 231.00
C 38.36 212.00 40.81 193.79 44.99 175.99 C 47.17 160.02 62.68 147.19 60.07 130.93 C 58.80 96.82 65.09 61.28 83.30 32.30 C 91.73 22.47 102.42 1.50 117.75 9.25 C 126.85 25.29 120.33 46.03 118.00 63.00
C 129.86 55.66 141.59 48.20 154.08 42.08 C 164.90 36.94 186.46 21.89 191.99 40.01 C 193.88 67.87 169.80 95.02 145.00 106.00
C 144.65 114.65 141.72 122.68 140.00 131.00
C 149.91 138.46 138.33 150.35 130.00 153.00
C 125.63 156.07 120.33 158.73 115.00 160.00
C 113.79 161.40 114.02 163.26 114.00 165.00
C 115.65 179.77 127.24 192.87 138.00 202.00
C 143.13 194.26 150.78 187.71 157.00 181.00
C 157.41 180.17 157.97 179.13 159.00 179.00
C 153.79 156.06 181.99 164.78 188.00 150.00
C 190.77 157.81 187.45 165.93 188.00 174.00 C 187.26 180.58 192.85 188.95 185.97 191.97 C 180.52 185.89 189.42 177.64 187.00 170.00
C 185.12 176.61 174.60 178.85 174.00 184.00
C 170.11 184.13 166.19 184.35 163.00 182.00
C 158.36 189.31 152.88 195.96 148.23 203.23 C 138.04 210.34 148.95 221.75 143.00 231.00
L 146.00 231.00
C 149.54 226.41 145.89 217.51 149.00 215.00
C 148.68 204.94 160.17 196.82 165.00 188.00
C 168.13 185.47 176.38 189.15 177.00 183.00
C 183.25 182.07 179.54 189.80 182.31 192.69 C 184.34 197.21 190.11 193.67 192.00 194.00
C 197.19 185.63 191.38 174.61 193.00 165.00
C 190.50 164.11 191.88 155.63 193.00 153.00
C 195.07 143.96 181.37 142.24 181.30 151.30 C 176.68 156.06 167.79 154.10 162.00 158.00
C 157.06 164.64 157.38 173.61 153.25 180.25 C 148.44 185.98 142.93 191.34 138.00 197.00
C 132.04 193.52 123.77 185.07 124.00 179.00
C 121.57 174.13 118.75 169.41 118.00 164.00
C 124.86 162.15 131.77 158.65 137.00 154.00
C 140.68 148.74 153.31 137.82 143.00 130.00
C 145.61 124.79 144.15 116.08 149.00 113.00
C 156.87 103.12 172.45 97.32 179.75 84.75 C 189.14 72.98 197.53 59.37 198.00 44.00 C 198.99 24.37 175.26 23.26 163.08 32.08 C 149.89 38.14 137.38 45.40 125.00 53.00
C 124.30 49.40 126.21 46.46 126.00 43.00
C 121.53 44.64 125.67 36.49 125.00 34.00 C 126.04 30.35 122.75 23.27 127.00 22.00
C 128.84 -0.64 101.25 -3.13 91.25 14.25 C 65.83 40.74 58.70 76.94 55.00 112.00 Z"/>
</g>
<g fill="#000002" fill-opacity="1.00" stroke="None"><path d="
M 39.00 231.00 
L 44.00 231.00
C 43.54 199.87 47.39 167.55 66.00 143.00
C 53.40 118.17 69.90 93.02 71.99 67.99 C 78.73 47.32 89.20 26.09 108.00 13.00
C 119.39 8.67 118.91 27.76 117.01 35.01 C 115.44 54.71 112.38 74.25 104.00 92.00
C 107.97 90.08 112.29 86.53 113.00 82.00
C 113.09 81.65 113.90 81.26 114.00 81.00
C 119.86 58.86 147.53 52.76 165.00 42.00
C 174.28 33.54 194.26 33.80 187.22 51.22 C 180.48 71.34 165.57 94.17 144.00 100.00
C 142.97 102.37 138.96 99.54 138.00 102.00
C 146.30 109.99 138.84 120.77 138.01 130.01 C 144.14 138.29 138.20 147.60 130.00 152.00
C 129.75 152.27 130.00 153.00 130.00 153.00
C 138.33 150.35 149.91 138.46 140.00 131.00
C 141.72 122.68 144.65 114.65 145.00 106.00
C 169.80 95.02 193.88 67.87 191.99 40.01 C 186.46 21.89 164.90 36.94 154.08 42.08 C 141.59 48.20 129.86 55.66 118.00 63.00
C 120.33 46.03 126.85 25.29 117.75 9.25 C 102.42 1.50 91.73 22.47 83.30 32.30 C 65.09 61.28 58.80 96.82 60.07 130.93 C 62.68 147.19 47.17 160.02 44.99 175.99 C 40.81 193.79 38.36 212.00 39.00 231.00 Z"/>
</g>
<g fill="#F8E2EF" fill-opacity="1.00" stroke="None"><path d="
M 108.00 13.00 
C 86.44 36.91 79.57 68.29 76.08 99.08 C 68.24 113.97 70.14 132.61 78.00 147.00
C 69.34 143.14 69.83 161.62 65.22 167.22 C 59.71 187.96 55.84 209.08 55.00 231.00
L 71.00 231.00
C 70.40 217.18 72.59 204.09 75.00 191.00
C 74.63 189.46 76.43 188.60 76.00 187.00
C 77.34 187.47 77.57 190.58 76.00 191.00
C 75.28 204.30 73.17 217.30 74.00 231.00
L 127.00 231.00
C 118.84 208.34 105.49 186.64 105.00 162.00
C 102.22 161.39 99.72 159.93 97.00 159.00
C 93.80 156.81 89.20 156.32 87.00 153.00
C 90.48 153.99 94.31 155.76 97.00 158.00
C 99.89 159.06 103.62 159.38 106.00 161.00
C 108.94 161.67 111.18 159.91 114.00 160.00
C 114.21 159.69 114.65 159.13 115.00 159.00
C 120.25 157.31 125.24 154.88 130.00 152.00
C 138.20 147.60 144.14 138.29 138.01 130.01 C 138.84 120.77 146.30 109.99 138.00 102.00
C 135.99 101.02 135.36 98.64 134.00 97.00
C 132.59 97.51 131.85 96.19 132.00 95.00
C 133.85 95.97 136.24 96.79 137.00 99.00
C 138.97 100.59 141.66 99.80 144.00 100.00
C 165.57 94.17 180.48 71.34 187.22 51.22 C 194.26 33.80 174.28 33.54 165.00 42.00
C 150.76 55.94 132.61 72.38 123.00 87.00
C 119.53 85.53 116.85 82.48 113.00 82.00
C 112.29 86.53 107.97 90.08 104.00 92.00
C 112.38 74.25 115.44 54.71 117.01 35.01 C 118.91 27.76 119.39 8.67 108.00 13.00 Z"/>
</g>
<g fill="#F6CBE2" fill-opacity="1.00" stroke="None"><path d="
M 44.00 231.00 
L 55.00 231.00
C 55.84 209.08 59.71 187.96 65.22 167.22 C 69.83 161.62 69.34 143.14 78.00 147.00
C 70.14 132.61 68.24 113.97 76.08 99.08 C 79.57 68.29 86.44 36.91 108.00 13.00
C 89.20 26.09 78.73 47.32 71.99 67.99 C 69.90 93.02 53.40 118.17 66.00 143.00
C 47.39 167.55 43.54 199.87 44.00 231.00 Z"/>
</g>
<g fill="#F7F9FD" fill-opacity="0.42" stroke="None"><path d="
M 126.00 43.00 
C 126.90 36.12 127.27 29.16 127.00 22.00
C 122.75 23.27 126.04 30.35 125.00 34.00 C 125.67 36.49 121.53 44.64 126.00 43.00 Z"/>
</g>
<g fill="#F6CBE2" fill-opacity="1.00" stroke="None"><path d="
M 114.00 81.00 
C 117.40 81.83 121.04 83.98 123.00 87.00
C 132.61 72.38 150.76 55.94 165.00 42.00
C 147.53 52.76 119.86 58.86 114.00 81.00 Z"/>
</g>
<g fill="#5D575B" fill-opacity="1.00" stroke="None"><path d="
M 113.00 82.00 
C 116.85 82.48 119.53 85.53 123.00 87.00
C 121.04 83.98 117.40 81.83 114.00 81.00
C 113.90 81.26 113.09 81.65 113.00 82.00 Z"/>
</g>
<g fill="#AEA5AF" fill-opacity="1.00" stroke="None"><path d="
M 134.00 97.00 
C 135.25 97.30 135.71 98.83 137.00 99.00
C 136.24 96.79 133.85 95.97 132.00 95.00
C 131.85 96.19 132.59 97.51 134.00 97.00 Z"/>
</g>
<g fill="#5D575B" fill-opacity="1.00" stroke="None"><path d="
M 138.00 102.00 
C 138.96 99.54 142.97 102.37 144.00 100.00
C 141.66 99.80 138.97 100.59 137.00 99.00
C 135.71 98.83 135.25 97.30 134.00 97.00
C 135.36 98.64 135.99 101.02 138.00 102.00 Z"/>
</g>
<g fill="#F7F9FD" fill-opacity="0.35" stroke="None"><path d="
M 56.00 133.00 
C 57.98 129.27 55.67 117.85 55.00 112.00
C 52.80 118.14 53.91 126.70 56.00 133.00 Z"/>
</g>
<g fill="#000002" fill-opacity="1.00" stroke="None"><path d="
M 100.00 124.00 
C 109.03 111.97 80.87 106.22 82.00 121.00
C 85.05 119.12 87.28 112.48 92.97 114.03 C 97.80 114.27 100.91 119.39 100.00 124.00 Z"/>
</g>
<g fill="#F7F9FD" fill-opacity="0.36" stroke="None"><path d="
M 137.00 154.00 
C 145.29 150.50 154.32 137.00 145.00 130.00
C 146.53 124.39 147.95 118.72 149.00 113.00
C 144.15 116.08 145.61 124.79 143.00 130.00
C 153.31 137.82 140.68 148.74 137.00 154.00 Z"/>
</g>
<g fill="#353436" fill-opacity="1.00" stroke="None"><path d="
M 135.00 126.00 
C 135.30 126.24 136.00 126.00 136.00 126.00
C 134.70 119.28 127.47 125.38 129.00 130.00
C 131.54 129.23 131.50 122.47 135.00 126.00 Z"/>
</g>
<g fill="#000002" fill-opacity="1.00" stroke="None"><path d="
M 125.00 129.00 
C 121.49 127.79 115.41 125.53 112.00 127.00
C 116.26 129.42 120.64 134.47 125.00 129.00 Z"/>
</g>
<g fill="#AEA5AF" fill-opacity="1.00" stroke="None"><path d="
M 136.00 126.00 
C 136.00 126.00 135.30 126.24 135.00 126.00
C 135.34 127.56 134.25 130.17 136.00 131.00
C 136.78 129.61 137.89 126.97 136.00 126.00 Z"/>
</g>
<g fill="#5D575B" fill-opacity="1.00" stroke="None"><path d="
M 116.00 143.00 
C 116.80 143.13 117.11 144.09 118.00 144.00
C 117.14 137.84 110.80 144.74 107.00 143.00 C 102.58 144.18 97.46 141.00 94.00 143.00
C 101.17 144.98 108.93 145.94 116.00 143.00 Z"/>
</g>
<g fill="#AEA5AF" fill-opacity="1.00" stroke="None"><path d="
M 118.00 144.00 
C 117.11 144.09 116.80 143.13 116.00 143.00
C 117.37 145.54 120.12 147.75 123.00 148.00
C 122.17 145.83 119.55 145.55 118.00 144.00 Z"/>
</g>
<g fill="#000002" fill-opacity="1.00" stroke="None"><path d="
M 159.00 179.00 
C 159.05 179.35 159.67 179.82 160.00 180.00
C 164.09 181.70 157.97 184.31 158.00 187.00
C 152.52 193.98 147.10 200.83 142.00 208.00
C 139.90 207.93 138.30 204.99 138.00 203.00
C 144.67 198.30 148.95 191.02 155.00 186.00
C 155.55 184.06 156.85 183.33 158.00 182.00
C 157.74 181.89 157.09 181.25 157.00 181.00
C 150.78 187.71 143.13 194.26 138.00 202.00
C 127.24 192.87 115.65 179.77 114.00 165.00
C 112.11 164.03 113.22 161.39 114.00 160.00
C 111.18 159.91 108.94 161.67 106.00 161.00
C 105.65 161.03 104.92 161.74 105.00 162.00
C 105.49 186.64 118.84 208.34 127.00 231.00
L 132.00 231.00
C 126.91 212.77 115.06 196.91 112.00 178.00
C 119.68 195.46 146.96 208.89 138.00 231.00
L 143.00 231.00
C 148.95 221.75 138.04 210.34 148.23 203.23 C 152.88 195.96 158.36 189.31 163.00 182.00
C 166.19 184.35 170.11 184.13 174.00 184.00
C 174.60 178.85 185.12 176.61 187.00 170.00
C 189.42 177.64 180.52 185.89 185.97 191.97 C 192.85 188.95 187.26 180.58 188.00 174.00 C 187.45 165.93 190.77 157.81 188.00 150.00
C 181.99 164.78 153.79 156.06 159.00 179.00 Z"/>
</g>
<g fill="#353436" fill-opacity="1.00" stroke="None"><path d="
M 115.00 159.00 
C 114.84 159.06 115.00 160.00 115.00 160.00
C 120.33 158.73 125.63 156.07 130.00 153.00
C 130.00 153.00 129.75 152.27 130.00 152.00
C 125.24 154.88 120.25 157.31 115.00 159.00 Z"/>
</g>
<g fill="#AEA5AF" fill-opacity="1.00" stroke="None"><path d="
M 97.00 159.00 
C 96.78 158.87 97.00 158.00 97.00 158.00
C 94.31 155.76 90.48 153.99 87.00 153.00
C 89.20 156.32 93.80 156.81 97.00 159.00 Z"/>
</g>
<g fill="#F7F9FD" fill-opacity="0.34" stroke="None"><path d="
M 193.00 165.00 
C 194.46 161.58 194.75 156.08 193.00 153.00
C 191.88 155.63 190.50 164.11 193.00 165.00 Z"/>
</g>
<g fill="#5D575B" fill-opacity="1.00" stroke="None"><path d="
M 97.00 159.00 
C 99.72 159.93 102.22 161.39 105.00 162.00
C 104.92 161.74 105.65 161.03 106.00 161.00
C 103.62 159.38 99.89 159.06 97.00 158.00
C 97.00 158.00 96.78 158.87 97.00 159.00 Z"/>
</g>
<g fill="#F7F9FD" fill-opacity="0.36" stroke="None"><path d="
M 124.00 179.00 
C 123.77 185.07 132.04 193.52 138.00 197.00
C 142.93 191.34 148.44 185.98 153.25 180.25 C 157.38 173.61 157.06 164.64 162.00 158.00
C 155.37 162.32 153.71 170.51 154.00 178.00
C 148.00 181.92 142.35 188.87 138.00 195.00
C 132.57 191.35 128.04 184.61 124.00 179.00 Z"/>
</g>
<g fill="#5D575B" fill-opacity="1.00" stroke="None"><path d="
M 114.00 160.00 
C 113.22 161.39 112.11 164.03 114.00 165.00
C 114.02 163.26 113.79 161.40 115.00 160.00
C 115.00 160.00 114.84 159.06 115.00 159.00
C 114.65 159.13 114.21 159.69 114.00 160.00 Z"/>
</g>
<g fill="#F8E2EF" fill-opacity="1.00" stroke="None"><path d="
M 132.00 231.00 
L 138.00 231.00
C 146.96 208.89 119.68 195.46 112.00 178.00
C 115.06 196.91 126.91 212.77 132.00 231.00 Z"/>
</g>
<g fill="#5D575B" fill-opacity="1.00" stroke="None"><path d="
M 157.00 181.00 
C 157.09 181.25 157.74 181.89 158.00 182.00
C 159.41 182.51 160.15 181.19 160.00 180.00
C 159.67 179.82 159.05 179.35 159.00 179.00
C 157.97 179.13 157.41 180.17 157.00 181.00 Z"/>
</g>
<g fill="#AEA5AF" fill-opacity="1.00" stroke="None"><path d="
M 158.00 182.00 
C 156.85 183.33 155.55 184.06 155.00 186.00
C 155.94 186.57 156.82 187.15 158.00 187.00
C 157.97 184.31 164.09 181.70 160.00 180.00
C 160.15 181.19 159.41 182.51 158.00 182.00 Z"/>
</g>
<g fill="#F7F9FD" fill-opacity="0.28" stroke="None"><path d="
M 165.00 188.00 
C 169.48 190.17 175.25 189.01 179.00 186.00
C 176.52 193.49 187.28 201.80 192.00 194.00
C 190.11 193.67 184.34 197.21 182.31 192.69 C 179.54 189.80 183.25 182.07 177.00 183.00
C 176.38 189.15 168.13 185.47 165.00 188.00 Z"/>
</g>
<g fill="#A67D69" fill-opacity="1.00" stroke="None"><path d="
M 158.00 187.00 
C 156.82 187.15 155.94 186.57 155.00 186.00
C 148.95 191.02 144.67 198.30 138.00 203.00
C 138.30 204.99 139.90 207.93 142.00 208.00
C 147.10 200.83 152.52 193.98 158.00 187.00 Z"/>
</g>
<g fill="#5D575B" fill-opacity="1.00" stroke="None"><path d="
M 75.00 191.00 
C 75.04 190.87 76.00 191.00 76.00 191.00
C 77.57 190.58 77.34 187.47 76.00 187.00
C 76.43 188.60 74.63 189.46 75.00 191.00 Z"/>
</g>
<g fill="#000002" fill-opacity="1.00" stroke="None"><path d="
M 71.00 231.00 
L 74.00 231.00
C 73.17 217.30 75.28 204.30 76.00 191.00
C 76.00 191.00 75.04 190.87 75.00 191.00
C 72.59 204.09 70.40 217.18 71.00 231.00 Z"/>
</g>
<g fill="#F7F9FD" fill-opacity="0.57" stroke="None"><path d="
M 35.00 231.00 
L 37.00 231.00
C 35.77 223.82 39.53 212.76 35.00 208.00
C 35.00 215.67 35.00 223.33 35.00 231.00 Z"/>
</g>
<g fill="#F7F9FD" fill-opacity="0.35" stroke="None"><path d="
M 146.00 231.00 
L 148.00 231.00
C 149.71 226.01 150.97 220.16 149.00 215.00
C 145.89 217.51 149.54 226.41 146.00 231.00 Z"/>
</g>
</svg>